<?xml version="1.0" ?><!-- Uploaded to: SVG Repo, www.svgrepo.com, Generator: SVG Repo Mixer Tools -->
<svg width="800px" height="800px" viewBox="0 0 64 64" xmlns="http://www.w3.org/2000/svg"><defs><style>.a{fill:#ffed09;}.a,.b{stroke:#d38509;stroke-linecap:round;stroke-linejoin:round;stroke-width:2px;}.b{fill:none;}.c{fill:#f7f8f9;}.d{fill:#1c1c1c;}.e{fill:#f5003c;}</style></defs><title/><circle class="a" cx="32" cy="32" r="20"/><line class="b" x1="32" x2="32" y1="9" y2="2"/><line class="b" x1="20.5" x2="17" y1="12.08" y2="6.02"/><line class="b" x1="12.08" x2="6.02" y1="20.5" y2="17"/><line class="b" x1="9" x2="2" y1="32" y2="32"/><line class="b" x1="12.08" x2="6.02" y1="43.5" y2="47"/><line class="b" x1="20.5" x2="17" y1="51.92" y2="57.98"/><line class="b" x1="32" x2="32" y1="55" y2="62"/><line class="b" x1="43.5" x2="47" y1="51.92" y2="57.98"/><line class="b" x1="51.92" x2="57.98" y1="43.5" y2="47"/><line class="b" x1="55" x2="62" y1="32" y2="32"/><line class="b" x1="51.92" x2="57.98" y1="20.5" y2="17"/><line class="b" x1="43.5" x2="47" y1="12.08" y2="6.02"/><path class="c" d="M25.5,36h13a0,0,0,0,1,0,0v.5A6.5,6.5,0,0,1,32,43h0a6.5,6.5,0,0,1-6.5-6.5V36a0,0,0,0,1,0,0Z"/><circle class="d" cx="24" cy="27" r="2"/><circle class="d" cx="40" cy="27" r="2"/><ellipse class="e" cx="19.5" cy="34" rx="4.5" ry="2"/><ellipse class="e" cx="44.5" cy="34" rx="4.5" ry="2"/></svg>